<?xml version="1.0" encoding="UTF-8"?>
<svg xmlns="http://www.w3.org/2000/svg" xmlns:xlink="http://www.w3.org/1999/xlink" width="64px" height="13px" viewBox="0 0 65 13" version="1.1">
<defs>
<linearGradient id="linear0" gradientUnits="userSpaceOnUse" x1="2.03" y1="2.09" x2="3.96" y2="2" gradientTransform="matrix(3.186275,0,0,3.186275,0,0.127451)">
<stop offset="0" style="stop-color:rgb(40.784314%,19.215686%,89.019608%);stop-opacity:1;"/>
<stop offset="1" style="stop-color:rgb(96.078431%,15.686275%,79.607843%);stop-opacity:1;"/>
</linearGradient>
<linearGradient id="linear1" gradientUnits="userSpaceOnUse" x1="3.71" y1="2.47" x2="4.7" y2="4.61" gradientTransform="matrix(3.186275,0,0,3.186275,0,0.127451)">
<stop offset="0" style="stop-color:rgb(40.784314%,19.215686%,89.019608%);stop-opacity:1;"/>
<stop offset="0.67" style="stop-color:rgb(96.078431%,15.686275%,79.607843%);stop-opacity:1;"/>
<stop offset="0.88" style="stop-color:rgb(96.078431%,15.686275%,79.607843%);stop-opacity:1;"/>
</linearGradient>
<linearGradient id="linear2" gradientUnits="userSpaceOnUse" x1="3.89" y1="1.68" x2="5.54" y2="0.11" gradientTransform="matrix(3.186275,0,0,3.186275,0,0.127451)">
<stop offset="0" style="stop-color:rgb(40.784314%,19.215686%,89.019608%);stop-opacity:1;"/>
<stop offset="0.91" style="stop-color:rgb(91.372549%,16.078431%,80.392157%);stop-opacity:1;"/>
<stop offset="1" style="stop-color:rgb(96.078431%,15.686275%,79.607843%);stop-opacity:1;"/>
</linearGradient>
<linearGradient id="linear3" gradientUnits="userSpaceOnUse" x1="0.46" y1="1.52" x2="1.95" y2="1.52" gradientTransform="matrix(3.186275,0,0,3.186275,0,0.127451)">
<stop offset="0" style="stop-color:rgb(40.784314%,19.215686%,89.019608%);stop-opacity:1;"/>
<stop offset="1" style="stop-color:rgb(96.078431%,15.686275%,79.607843%);stop-opacity:1;"/>
</linearGradient>
<linearGradient id="linear4" gradientUnits="userSpaceOnUse" x1="0.74" y1="2.08" x2="2.23" y2="2.08" gradientTransform="matrix(3.186275,0,0,3.186275,0,0.127451)">
<stop offset="0" style="stop-color:rgb(40.784314%,19.215686%,89.019608%);stop-opacity:1;"/>
<stop offset="1" style="stop-color:rgb(96.078431%,15.686275%,79.607843%);stop-opacity:1;"/>
</linearGradient>
<linearGradient id="linear5" gradientUnits="userSpaceOnUse" x1="0" y1="2.62" x2="1.75" y2="2.62" gradientTransform="matrix(3.186275,0,0,3.186275,0,0.127451)">
<stop offset="0" style="stop-color:rgb(40.784314%,19.215686%,89.019608%);stop-opacity:1;"/>
<stop offset="1" style="stop-color:rgb(96.078431%,15.686275%,79.607843%);stop-opacity:1;"/>
</linearGradient>
</defs>
<g id="surface1">
<path style=" stroke:none;fill-rule:nonzero;fill:url(#linear0);" d="M 13.511719 7.457031 L 10.675781 10.578125 L 8.570312 12.871094 L 3.3125 12.871094 L 8.699219 6.914062 L 5.320312 0.636719 L 9.8125 0.636719 L 11.503906 3.792969 Z M 13.511719 7.457031 "/>
<path style=" stroke:none;fill-rule:nonzero;fill:url(#linear1);" d="M 16.410156 12.871094 L 11.917969 12.871094 L 10.675781 10.578125 L 13.511719 7.457031 Z M 16.410156 12.871094 "/>
<path style=" stroke:none;fill-rule:nonzero;fill:url(#linear2);" d="M 20.105469 0.191406 L 13.957031 7.011719 L 11.949219 3.34375 L 14.816406 0.191406 Z M 20.105469 0.191406 "/>
<path style=" stroke:none;fill-rule:nonzero;fill:rgb(15.686275%,15.686275%,15.686275%);fill-opacity:1;" d="M 26.796875 3.121094 C 27.277344 3.390625 27.675781 3.789062 27.945312 4.269531 C 28.21875 4.789062 28.363281 5.371094 28.359375 5.957031 C 28.367188 6.714844 28.179688 7.460938 27.816406 8.125 C 27.472656 8.757812 26.964844 9.285156 26.351562 9.65625 C 25.730469 10.082031 25 10.3125 24.246094 10.324219 C 23.367188 10.410156 22.503906 10.023438 21.984375 9.304688 L 21.285156 12.808594 L 18.832031 12.808594 L 20.839844 2.773438 L 23.292969 2.773438 L 23.292969 3.472656 C 23.851562 3.023438 24.546875 2.777344 25.265625 2.773438 C 25.796875 2.757812 26.324219 2.878906 26.796875 3.121094 Z M 25.265625 7.679688 C 25.597656 7.265625 25.769531 6.742188 25.746094 6.214844 C 25.761719 5.835938 25.621094 5.46875 25.363281 5.195312 C 25.074219 4.894531 24.664062 4.742188 24.246094 4.78125 C 23.757812 4.765625 23.285156 4.976562 22.972656 5.351562 C 22.636719 5.777344 22.46875 6.308594 22.496094 6.851562 C 22.464844 7.230469 22.605469 7.605469 22.875 7.875 C 23.144531 8.144531 23.515625 8.28125 23.898438 8.253906 C 24.421875 8.300781 24.933594 8.085938 25.265625 7.679688 Z M 25.265625 7.679688 "/>
<path style=" stroke:none;fill-rule:nonzero;fill:rgb(15.686275%,15.686275%,15.686275%);fill-opacity:1;" d="M 36.992188 7.136719 L 31.574219 7.136719 C 31.574219 7.945312 32.128906 8.347656 33.234375 8.347656 C 33.550781 8.394531 33.871094 8.394531 34.1875 8.347656 C 34.492188 8.253906 34.773438 8.101562 35.015625 7.902344 L 36.101562 9.527344 C 35.175781 10.191406 34.054688 10.527344 32.914062 10.484375 C 32.203125 10.5 31.496094 10.359375 30.84375 10.070312 C 30.28125 9.816406 29.804688 9.40625 29.472656 8.890625 C 29.140625 8.355469 28.976562 7.734375 28.996094 7.105469 C 28.988281 6.34375 29.1875 5.597656 29.570312 4.9375 C 29.9375 4.292969 30.476562 3.761719 31.128906 3.410156 C 31.847656 2.996094 32.660156 2.773438 33.488281 2.773438 C 34.148438 2.761719 34.800781 2.902344 35.398438 3.1875 C 35.929688 3.433594 36.371094 3.832031 36.675781 4.332031 C 36.921875 4.835938 37.03125 5.398438 36.992188 5.957031 C 37.035156 6.351562 37.035156 6.746094 36.992188 7.136719 Z M 32.339844 4.875 C 32.050781 5.117188 31.839844 5.4375 31.734375 5.800781 L 34.921875 5.800781 C 34.945312 5.449219 34.804688 5.105469 34.539062 4.875 C 34.25 4.644531 33.886719 4.53125 33.519531 4.554688 C 33.101562 4.507812 32.679688 4.621094 32.339844 4.875 Z M 32.339844 4.875 "/>
<path style=" stroke:none;fill-rule:nonzero;fill:rgb(15.686275%,15.686275%,15.686275%);fill-opacity:1;" d="M 47.285156 0.128906 L 45.277344 10.195312 L 42.824219 10.195312 L 42.824219 9.464844 C 42.25 10.015625 41.484375 10.3125 40.6875 10.292969 C 40.152344 10.285156 39.625 10.140625 39.160156 9.878906 C 38.679688 9.609375 38.28125 9.210938 38.011719 8.730469 C 37.707031 8.183594 37.554688 7.570312 37.566406 6.945312 C 37.558594 6.1875 37.742188 5.441406 38.109375 4.78125 C 38.449219 4.148438 38.957031 3.621094 39.574219 3.25 C 40.234375 2.878906 40.988281 2.714844 41.738281 2.773438 C 42.605469 2.695312 43.445312 3.066406 43.96875 3.761719 L 44.703125 0.128906 Z M 43.015625 7.679688 C 43.308594 7.238281 43.433594 6.707031 43.363281 6.179688 C 43.375 5.804688 43.238281 5.4375 42.984375 5.160156 C 42.710938 4.894531 42.34375 4.757812 41.964844 4.78125 C 41.472656 4.765625 41.003906 4.976562 40.6875 5.351562 C 40.351562 5.777344 40.183594 6.308594 40.210938 6.851562 C 40.1875 7.222656 40.3125 7.589844 40.5625 7.871094 C 40.832031 8.132812 41.203125 8.269531 41.582031 8.253906 C 42.125 8.320312 42.667969 8.105469 43.015625 7.679688 Z M 43.015625 7.679688 "/>
<path style=" stroke:none;fill-rule:nonzero;fill:rgb(15.686275%,15.686275%,15.686275%);fill-opacity:1;" d="M 56.78125 0.128906 L 54.773438 10.195312 L 52.320312 10.195312 L 52.320312 9.464844 C 51.746094 10.015625 50.976562 10.3125 50.183594 10.292969 C 49.648438 10.285156 49.121094 10.140625 48.65625 9.878906 C 48.171875 9.609375 47.777344 9.210938 47.507812 8.730469 C 47.203125 8.183594 47.050781 7.570312 47.0625 6.945312 C 47.050781 6.1875 47.238281 5.441406 47.601562 4.78125 C 47.945312 4.148438 48.453125 3.621094 49.070312 3.25 C 49.726562 2.878906 50.480469 2.714844 51.234375 2.773438 C 52.097656 2.695312 52.941406 3.066406 53.464844 3.761719 L 54.199219 0.128906 Z M 52.476562 7.679688 C 52.804688 7.25 52.964844 6.71875 52.925781 6.179688 C 52.9375 5.804688 52.796875 5.4375 52.542969 5.160156 C 52.269531 4.894531 51.902344 4.757812 51.523438 4.78125 C 51.03125 4.765625 50.5625 4.976562 50.246094 5.351562 C 49.910156 5.777344 49.742188 6.308594 49.769531 6.851562 C 49.746094 7.222656 49.871094 7.589844 50.121094 7.871094 C 50.390625 8.132812 50.761719 8.269531 51.140625 8.253906 C 51.652344 8.289062 52.152344 8.074219 52.476562 7.679688 Z M 52.476562 7.679688 "/>
<path style=" stroke:none;fill-rule:nonzero;fill:rgb(15.686275%,15.686275%,15.686275%);fill-opacity:1;" d="M 58.46875 9.910156 C 57.917969 9.652344 57.453125 9.242188 57.128906 8.730469 C 56.804688 8.203125 56.636719 7.597656 56.652344 6.976562 C 56.621094 5.429688 57.476562 3.996094 58.851562 3.28125 C 59.570312 2.917969 60.371094 2.746094 61.175781 2.773438 C 61.878906 2.757812 62.574219 2.898438 63.214844 3.1875 C 63.765625 3.445312 64.230469 3.851562 64.554688 4.363281 C 64.851562 4.84375 65.015625 5.394531 65.03125 5.957031 C 65.054688 7.507812 64.203125 8.933594 62.832031 9.65625 C 62.117188 10.027344 61.316406 10.214844 60.507812 10.195312 C 59.816406 10.253906 59.117188 10.15625 58.46875 9.910156 Z M 61.910156 7.679688 C 62.28125 7.269531 62.488281 6.734375 62.484375 6.179688 C 62.496094 5.804688 62.355469 5.4375 62.101562 5.160156 C 61.832031 4.894531 61.460938 4.757812 61.082031 4.78125 C 60.589844 4.765625 60.121094 4.976562 59.804688 5.351562 C 59.46875 5.777344 59.300781 6.308594 59.328125 6.851562 C 59.3125 7.226562 59.449219 7.59375 59.710938 7.871094 C 59.984375 8.132812 60.351562 8.269531 60.730469 8.253906 C 61.1875 8.238281 61.617188 8.03125 61.910156 7.679688 Z M 61.910156 7.679688 "/>
<path style=" stroke:none;fill-rule:nonzero;fill:url(#linear3);" d="M 1.847656 4.589844 L 5.832031 4.589844 C 6.042969 4.589844 6.214844 4.757812 6.214844 4.96875 L 6.214844 5.003906 C 6.214844 5.214844 6.042969 5.386719 5.832031 5.386719 L 1.847656 5.386719 C 1.636719 5.386719 1.464844 5.214844 1.464844 5.003906 L 1.464844 4.96875 C 1.464844 4.757812 1.636719 4.589844 1.847656 4.589844 Z M 1.847656 4.589844 "/>
<path style=" stroke:none;fill-rule:nonzero;fill:url(#linear4);" d="M 2.738281 6.371094 L 6.722656 6.371094 C 6.933594 6.371094 7.105469 6.542969 7.105469 6.753906 L 7.105469 6.785156 C 7.105469 6.996094 6.933594 7.167969 6.722656 7.167969 L 2.738281 7.167969 C 2.527344 7.167969 2.359375 6.996094 2.359375 6.785156 L 2.359375 6.753906 C 2.359375 6.542969 2.527344 6.371094 2.738281 6.371094 Z M 2.738281 6.371094 "/>
<path style=" stroke:none;fill-rule:nonzero;fill:url(#linear5);" d="M 0.382812 8.09375 L 5.195312 8.09375 C 5.40625 8.09375 5.574219 8.265625 5.574219 8.476562 L 5.574219 8.507812 C 5.574219 8.71875 5.40625 8.890625 5.195312 8.890625 L 0.382812 8.890625 C 0.171875 8.890625 0 8.71875 0 8.507812 L 0 8.476562 C 0 8.265625 0.171875 8.09375 0.382812 8.09375 Z M 0.382812 8.09375 "/>
</g>
</svg>
