<?xml version="1.0" encoding="UTF-8"?>
<svg xmlns="http://www.w3.org/2000/svg" xmlns:xlink="http://www.w3.org/1999/xlink" width="300px" height="59px" viewBox="0 0 295 59" version="1.1">
<defs>
<linearGradient id="linear0" gradientUnits="userSpaceOnUse" x1="2.03" y1="2.09" x2="3.96" y2="2" gradientTransform="matrix(14.460784,0,0,14.460784,0,0.578431)">
<stop offset="0" style="stop-color:rgb(40.784314%,19.215686%,89.019608%);stop-opacity:1;"/>
<stop offset="1" style="stop-color:rgb(96.078431%,15.686275%,79.607843%);stop-opacity:1;"/>
</linearGradient>
<linearGradient id="linear1" gradientUnits="userSpaceOnUse" x1="3.71" y1="2.47" x2="4.7" y2="4.61" gradientTransform="matrix(14.460784,0,0,14.460784,0,0.578431)">
<stop offset="0" style="stop-color:rgb(40.784314%,19.215686%,89.019608%);stop-opacity:1;"/>
<stop offset="0.67" style="stop-color:rgb(96.078431%,15.686275%,79.607843%);stop-opacity:1;"/>
<stop offset="0.88" style="stop-color:rgb(96.078431%,15.686275%,79.607843%);stop-opacity:1;"/>
</linearGradient>
<linearGradient id="linear2" gradientUnits="userSpaceOnUse" x1="3.89" y1="1.68" x2="5.54" y2="0.11" gradientTransform="matrix(14.460784,0,0,14.460784,0,0.578431)">
<stop offset="0" style="stop-color:rgb(40.784314%,19.215686%,89.019608%);stop-opacity:1;"/>
<stop offset="0.91" style="stop-color:rgb(91.372549%,16.078431%,80.392157%);stop-opacity:1;"/>
<stop offset="1" style="stop-color:rgb(96.078431%,15.686275%,79.607843%);stop-opacity:1;"/>
</linearGradient>
<linearGradient id="linear3" gradientUnits="userSpaceOnUse" x1="0.46" y1="1.52" x2="1.95" y2="1.52" gradientTransform="matrix(14.460784,0,0,14.460784,0,0.578431)">
<stop offset="0" style="stop-color:rgb(40.784314%,19.215686%,89.019608%);stop-opacity:1;"/>
<stop offset="1" style="stop-color:rgb(96.078431%,15.686275%,79.607843%);stop-opacity:1;"/>
</linearGradient>
<linearGradient id="linear4" gradientUnits="userSpaceOnUse" x1="0.74" y1="2.08" x2="2.23" y2="2.08" gradientTransform="matrix(14.460784,0,0,14.460784,0,0.578431)">
<stop offset="0" style="stop-color:rgb(40.784314%,19.215686%,89.019608%);stop-opacity:1;"/>
<stop offset="1" style="stop-color:rgb(96.078431%,15.686275%,79.607843%);stop-opacity:1;"/>
</linearGradient>
<linearGradient id="linear5" gradientUnits="userSpaceOnUse" x1="0" y1="2.62" x2="1.75" y2="2.62" gradientTransform="matrix(14.460784,0,0,14.460784,0,0.578431)">
<stop offset="0" style="stop-color:rgb(40.784314%,19.215686%,89.019608%);stop-opacity:1;"/>
<stop offset="1" style="stop-color:rgb(96.078431%,15.686275%,79.607843%);stop-opacity:1;"/>
</linearGradient>
</defs>
<g id="surface1">
<path style=" stroke:none;fill-rule:nonzero;fill:url(#linear0);" d="M 61.3125 33.839844 L 48.445312 48.011719 L 38.898438 58.421875 L 15.039062 58.421875 L 39.476562 31.378906 L 24.148438 2.890625 L 44.539062 2.890625 L 52.203125 17.207031 Z M 61.3125 33.839844 "/>
<path style=" stroke:none;fill-rule:nonzero;fill:url(#linear1);" d="M 74.472656 58.421875 L 54.082031 58.421875 L 48.445312 48.011719 L 61.3125 33.839844 Z M 74.472656 58.421875 "/>
<path style=" stroke:none;fill-rule:nonzero;fill:url(#linear2);" d="M 91.246094 0.867188 L 63.339844 31.8125 L 54.226562 15.183594 L 67.242188 0.867188 Z M 91.246094 0.867188 "/>
<path style=" stroke:none;fill-rule:nonzero;fill:rgb(15.686275%,15.686275%,15.686275%);fill-opacity:1;" d="M 121.613281 14.171875 C 123.796875 15.394531 125.597656 17.195312 126.820312 19.378906 C 128.074219 21.734375 128.722656 24.371094 128.699219 27.042969 C 128.734375 30.476562 127.886719 33.859375 126.242188 36.875 C 124.679688 39.738281 122.386719 42.132812 119.589844 43.816406 C 116.78125 45.753906 113.457031 46.808594 110.046875 46.851562 C 106.042969 47.25 102.132812 45.488281 99.78125 42.226562 L 96.597656 58.132812 L 85.464844 58.132812 L 94.574219 12.582031 L 105.707031 12.582031 L 105.707031 15.761719 C 108.253906 13.722656 111.414062 12.601562 114.675781 12.582031 C 117.085938 12.523438 119.46875 13.070312 121.613281 14.171875 Z M 114.675781 34.851562 C 116.175781 32.96875 116.945312 30.605469 116.84375 28.199219 C 116.910156 26.484375 116.285156 24.816406 115.109375 23.570312 C 113.796875 22.207031 111.933594 21.515625 110.046875 21.691406 C 107.820312 21.621094 105.6875 22.582031 104.261719 24.292969 C 102.738281 26.222656 101.96875 28.636719 102.09375 31.089844 C 101.960938 32.816406 102.589844 34.511719 103.8125 35.734375 C 105.035156 36.957031 106.730469 37.585938 108.457031 37.453125 C 110.832031 37.664062 113.15625 36.691406 114.675781 34.851562 Z M 114.675781 34.851562 "/>
<path style=" stroke:none;fill-rule:nonzero;fill:rgb(15.686275%,15.686275%,15.686275%);fill-opacity:1;" d="M 167.890625 32.390625 L 143.304688 32.390625 C 143.304688 36.054688 145.8125 37.886719 150.824219 37.886719 C 152.265625 38.105469 153.726562 38.105469 155.164062 37.886719 C 156.535156 37.453125 157.808594 36.769531 158.925781 35.863281 L 163.839844 43.238281 C 159.636719 46.25 154.546875 47.777344 149.378906 47.574219 C 146.144531 47.652344 142.9375 47.011719 139.980469 45.695312 C 137.433594 44.550781 135.273438 42.691406 133.761719 40.34375 C 132.253906 37.917969 131.5 35.101562 131.59375 32.246094 C 131.570312 28.796875 132.46875 25.402344 134.195312 22.414062 C 135.863281 19.484375 138.320312 17.082031 141.28125 15.472656 C 144.535156 13.59375 148.226562 12.59375 151.984375 12.582031 C 154.980469 12.539062 157.949219 13.179688 160.660156 14.460938 C 163.0625 15.582031 165.078125 17.394531 166.445312 19.667969 C 167.566406 21.953125 168.066406 24.5 167.890625 27.042969 C 168.074219 28.820312 168.074219 30.613281 167.890625 32.390625 Z M 146.777344 22.125 C 145.460938 23.214844 144.503906 24.675781 144.03125 26.320312 L 158.488281 26.320312 C 158.605469 24.726562 157.960938 23.171875 156.753906 22.125 C 155.449219 21.078125 153.796875 20.5625 152.128906 20.679688 C 150.226562 20.460938 148.3125 20.980469 146.777344 22.125 Z M 146.777344 22.125 "/>
<path style=" stroke:none;fill-rule:nonzero;fill:rgb(15.686275%,15.686275%,15.686275%);fill-opacity:1;" d="M 214.597656 0.578125 L 205.488281 46.273438 L 194.351562 46.273438 L 194.351562 42.949219 C 191.757812 45.449219 188.265625 46.804688 184.664062 46.707031 C 182.230469 46.675781 179.839844 46.03125 177.722656 44.828125 C 175.542969 43.605469 173.742188 41.804688 172.515625 39.621094 C 171.140625 37.148438 170.441406 34.355469 170.492188 31.523438 C 170.453125 28.089844 171.300781 24.703125 172.949219 21.691406 C 174.507812 18.824219 176.804688 16.425781 179.601562 14.75 C 182.59375 13.070312 186.015625 12.316406 189.4375 12.582031 C 193.359375 12.230469 197.183594 13.925781 199.558594 17.0625 L 202.886719 0.578125 Z M 195.21875 34.851562 C 196.550781 32.851562 197.117188 30.4375 196.8125 28.054688 C 196.863281 26.34375 196.242188 24.679688 195.074219 23.425781 C 193.847656 22.21875 192.167969 21.585938 190.449219 21.691406 C 188.222656 21.621094 186.089844 22.582031 184.664062 24.292969 C 183.140625 26.222656 182.371094 28.636719 182.496094 31.089844 C 182.386719 32.785156 182.960938 34.449219 184.085938 35.71875 C 185.324219 36.910156 186.996094 37.539062 188.714844 37.453125 C 191.1875 37.765625 193.644531 36.78125 195.21875 34.851562 Z M 195.21875 34.851562 "/>
<path style=" stroke:none;fill-rule:nonzero;fill:rgb(15.686275%,15.686275%,15.686275%);fill-opacity:1;" d="M 257.691406 0.578125 L 248.582031 46.273438 L 237.445312 46.273438 L 237.445312 42.949219 C 234.851562 45.449219 231.359375 46.804688 227.757812 46.707031 C 225.320312 46.675781 222.933594 46.03125 220.816406 44.828125 C 218.636719 43.605469 216.832031 41.804688 215.609375 39.621094 C 214.234375 37.148438 213.535156 34.355469 213.585938 31.523438 C 213.546875 28.089844 214.390625 24.703125 216.042969 21.691406 C 217.601562 18.824219 219.898438 16.425781 222.695312 14.75 C 225.6875 13.070312 229.109375 12.316406 232.53125 12.582031 C 236.449219 12.230469 240.277344 13.925781 242.652344 17.0625 L 245.976562 0.578125 Z M 238.167969 34.851562 C 239.652344 32.910156 240.375 30.492188 240.195312 28.054688 C 240.246094 26.34375 239.621094 24.679688 238.457031 23.425781 C 237.230469 22.21875 235.550781 21.585938 233.832031 21.691406 C 231.605469 21.621094 229.472656 22.582031 228.046875 24.292969 C 226.523438 26.222656 225.75 28.636719 225.878906 31.089844 C 225.769531 32.785156 226.34375 34.449219 227.46875 35.71875 C 228.703125 36.910156 230.378906 37.539062 232.09375 37.453125 C 234.421875 37.617188 236.683594 36.648438 238.167969 34.851562 Z M 238.167969 34.851562 "/>
<path style=" stroke:none;fill-rule:nonzero;fill:rgb(15.686275%,15.686275%,15.686275%);fill-opacity:1;" d="M 265.355469 44.972656 C 262.863281 43.804688 260.753906 41.949219 259.28125 39.621094 C 257.800781 37.238281 257.046875 34.472656 257.113281 31.667969 C 256.980469 24.636719 260.847656 18.136719 267.089844 14.894531 C 270.359375 13.25 273.988281 12.457031 277.648438 12.582031 C 280.832031 12.511719 283.996094 13.152344 286.902344 14.460938 C 289.394531 15.628906 291.5 17.484375 292.976562 19.8125 C 294.324219 21.988281 295.074219 24.480469 295.144531 27.042969 C 295.242188 34.066406 291.386719 40.550781 285.167969 43.816406 C 281.910156 45.511719 278.28125 46.355469 274.609375 46.273438 C 271.46875 46.53125 268.304688 46.089844 265.355469 44.972656 Z M 280.972656 34.851562 C 282.664062 32.992188 283.59375 30.566406 283.574219 28.054688 C 283.628906 26.34375 283.003906 24.679688 281.839844 23.425781 C 280.613281 22.21875 278.933594 21.585938 277.214844 21.691406 C 274.988281 21.621094 272.851562 22.582031 271.429688 24.292969 C 269.90625 26.222656 269.132812 28.636719 269.261719 31.089844 C 269.191406 32.804688 269.816406 34.472656 270.996094 35.71875 C 272.230469 36.910156 273.90625 37.539062 275.621094 37.453125 C 277.695312 37.394531 279.644531 36.445312 280.972656 34.851562 Z M 280.972656 34.851562 "/>
<path style=" stroke:none;fill-rule:nonzero;fill:url(#linear3);" d="M 8.386719 20.824219 L 26.464844 20.824219 C 27.421875 20.824219 28.199219 21.601562 28.199219 22.558594 L 28.199219 22.703125 C 28.199219 23.660156 27.421875 24.4375 26.464844 24.4375 L 8.386719 24.4375 C 7.429688 24.4375 6.652344 23.660156 6.652344 22.703125 L 6.652344 22.558594 C 6.652344 21.601562 7.429688 20.824219 8.386719 20.824219 Z M 8.386719 20.824219 "/>
<path style=" stroke:none;fill-rule:nonzero;fill:url(#linear4);" d="M 12.4375 28.921875 L 30.511719 28.921875 C 31.46875 28.921875 32.246094 29.699219 32.246094 30.65625 L 32.246094 30.800781 C 32.246094 31.761719 31.46875 32.535156 30.511719 32.535156 L 12.4375 32.535156 C 11.476562 32.535156 10.699219 31.761719 10.699219 30.800781 L 10.699219 30.65625 C 10.699219 29.699219 11.476562 28.921875 12.4375 28.921875 Z M 12.4375 28.921875 "/>
<path style=" stroke:none;fill-rule:nonzero;fill:url(#linear5);" d="M 1.734375 36.730469 L 23.570312 36.730469 C 24.53125 36.730469 25.304688 37.507812 25.304688 38.464844 L 25.304688 38.609375 C 25.304688 39.570312 24.53125 40.34375 23.570312 40.34375 L 1.734375 40.34375 C 0.777344 40.34375 0 39.570312 0 38.609375 L 0 38.464844 C 0 37.507812 0.777344 36.730469 1.734375 36.730469 Z M 1.734375 36.730469 "/>
</g>
</svg>
