<?xml version="1.0" encoding="UTF-8"?>
<svg xmlns="http://www.w3.org/2000/svg" xmlns:xlink="http://www.w3.org/1999/xlink" width="600px" height="118px" viewBox="0 0 590 118" version="1.1">
<defs>
<linearGradient id="linear0" gradientUnits="userSpaceOnUse" x1="2.03" y1="2.09" x2="3.96" y2="2" gradientTransform="matrix(28.921569,0,0,28.921569,0,1.156863)">
<stop offset="0" style="stop-color:rgb(40.784314%,19.215686%,89.019608%);stop-opacity:1;"/>
<stop offset="1" style="stop-color:rgb(96.078431%,15.686275%,79.607843%);stop-opacity:1;"/>
</linearGradient>
<linearGradient id="linear1" gradientUnits="userSpaceOnUse" x1="3.71" y1="2.47" x2="4.7" y2="4.61" gradientTransform="matrix(28.921569,0,0,28.921569,0,1.156863)">
<stop offset="0" style="stop-color:rgb(40.784314%,19.215686%,89.019608%);stop-opacity:1;"/>
<stop offset="0.67" style="stop-color:rgb(96.078431%,15.686275%,79.607843%);stop-opacity:1;"/>
<stop offset="0.88" style="stop-color:rgb(96.078431%,15.686275%,79.607843%);stop-opacity:1;"/>
</linearGradient>
<linearGradient id="linear2" gradientUnits="userSpaceOnUse" x1="3.89" y1="1.68" x2="5.54" y2="0.11" gradientTransform="matrix(28.921569,0,0,28.921569,0,1.156863)">
<stop offset="0" style="stop-color:rgb(40.784314%,19.215686%,89.019608%);stop-opacity:1;"/>
<stop offset="0.91" style="stop-color:rgb(91.372549%,16.078431%,80.392157%);stop-opacity:1;"/>
<stop offset="1" style="stop-color:rgb(96.078431%,15.686275%,79.607843%);stop-opacity:1;"/>
</linearGradient>
<linearGradient id="linear3" gradientUnits="userSpaceOnUse" x1="0.46" y1="1.52" x2="1.95" y2="1.52" gradientTransform="matrix(28.921569,0,0,28.921569,0,1.156863)">
<stop offset="0" style="stop-color:rgb(40.784314%,19.215686%,89.019608%);stop-opacity:1;"/>
<stop offset="1" style="stop-color:rgb(96.078431%,15.686275%,79.607843%);stop-opacity:1;"/>
</linearGradient>
<linearGradient id="linear4" gradientUnits="userSpaceOnUse" x1="0.74" y1="2.08" x2="2.23" y2="2.08" gradientTransform="matrix(28.921569,0,0,28.921569,0,1.156863)">
<stop offset="0" style="stop-color:rgb(40.784314%,19.215686%,89.019608%);stop-opacity:1;"/>
<stop offset="1" style="stop-color:rgb(96.078431%,15.686275%,79.607843%);stop-opacity:1;"/>
</linearGradient>
<linearGradient id="linear5" gradientUnits="userSpaceOnUse" x1="0" y1="2.62" x2="1.75" y2="2.62" gradientTransform="matrix(28.921569,0,0,28.921569,0,1.156863)">
<stop offset="0" style="stop-color:rgb(40.784314%,19.215686%,89.019608%);stop-opacity:1;"/>
<stop offset="1" style="stop-color:rgb(96.078431%,15.686275%,79.607843%);stop-opacity:1;"/>
</linearGradient>
</defs>
<g id="surface1">
<path style=" stroke:none;fill-rule:nonzero;fill:url(#linear0);" d="M 122.628906 67.675781 L 96.886719 96.019531 L 77.800781 116.84375 L 30.078125 116.84375 L 78.957031 62.761719 L 48.300781 5.785156 L 89.078125 5.785156 L 104.40625 34.417969 Z M 122.628906 67.675781 "/>
<path style=" stroke:none;fill-rule:nonzero;fill:url(#linear1);" d="M 148.945312 116.84375 L 108.167969 116.84375 L 96.886719 96.019531 L 122.628906 67.675781 Z M 148.945312 116.84375 "/>
<path style=" stroke:none;fill-rule:nonzero;fill:url(#linear2);" d="M 182.496094 1.734375 L 126.675781 63.628906 L 108.457031 30.367188 L 134.484375 1.734375 Z M 182.496094 1.734375 "/>
<path style=" stroke:none;fill-rule:nonzero;fill:rgb(15.686275%,15.686275%,15.686275%);fill-opacity:1;" d="M 243.230469 28.34375 C 247.59375 30.789062 251.195312 34.394531 253.640625 38.753906 C 256.152344 43.472656 257.445312 48.742188 257.402344 54.082031 C 257.46875 60.953125 255.777344 67.722656 252.484375 73.75 C 249.363281 79.476562 244.769531 84.269531 239.179688 87.632812 C 233.5625 91.503906 226.917969 93.617188 220.09375 93.707031 C 212.085938 94.503906 204.265625 90.976562 199.558594 84.449219 L 193.195312 116.265625 L 170.925781 116.265625 L 189.148438 25.160156 L 211.417969 25.160156 L 211.417969 31.523438 C 216.503906 27.441406 222.824219 25.199219 229.347656 25.160156 C 234.167969 25.046875 238.941406 26.140625 243.230469 28.34375 Z M 229.347656 69.699219 C 232.351562 65.933594 233.894531 61.210938 233.6875 56.398438 C 233.824219 52.96875 232.574219 49.632812 230.214844 47.140625 C 227.589844 44.414062 223.863281 43.027344 220.09375 43.382812 C 215.640625 43.242188 211.375 45.164062 208.523438 48.589844 C 205.476562 52.441406 203.933594 57.273438 204.1875 62.179688 C 203.921875 65.628906 205.179688 69.023438 207.625 71.46875 C 210.070312 73.914062 213.460938 75.171875 216.910156 74.90625 C 221.660156 75.328125 226.316406 73.378906 229.347656 69.699219 Z M 229.347656 69.699219 "/>
<path style=" stroke:none;fill-rule:nonzero;fill:rgb(15.686275%,15.686275%,15.686275%);fill-opacity:1;" d="M 335.78125 64.785156 L 286.613281 64.785156 C 286.613281 72.109375 291.625 75.773438 301.652344 75.773438 C 304.527344 76.210938 307.453125 76.210938 310.328125 75.773438 C 313.066406 74.910156 315.617188 73.535156 317.847656 71.726562 L 327.679688 86.476562 C 319.273438 92.5 309.097656 95.550781 298.761719 95.152344 C 292.292969 95.304688 285.871094 94.023438 279.960938 91.390625 C 274.871094 89.101562 270.550781 85.382812 267.523438 80.691406 C 264.511719 75.839844 263 70.203125 263.1875 64.496094 C 263.140625 57.59375 264.9375 50.804688 268.390625 44.828125 C 271.730469 38.96875 276.636719 34.160156 282.5625 30.945312 C 289.070312 27.183594 296.449219 25.191406 303.964844 25.160156 C 309.960938 25.074219 315.898438 26.363281 321.320312 28.921875 C 326.125 31.160156 330.15625 34.789062 332.886719 39.332031 C 335.132812 43.910156 336.132812 48.996094 335.78125 54.082031 C 336.148438 57.640625 336.148438 61.226562 335.78125 64.785156 Z M 293.554688 44.25 C 290.921875 46.433594 289.007812 49.355469 288.058594 52.636719 L 316.980469 52.636719 C 317.210938 49.449219 315.925781 46.339844 313.511719 44.25 C 310.898438 42.15625 307.59375 41.125 304.253906 41.359375 C 300.449219 40.925781 296.621094 41.957031 293.554688 44.25 Z M 293.554688 44.25 "/>
<path style=" stroke:none;fill-rule:nonzero;fill:rgb(15.686275%,15.686275%,15.686275%);fill-opacity:1;" d="M 429.195312 1.15625 L 410.976562 92.550781 L 388.707031 92.550781 L 388.707031 85.898438 C 383.515625 90.898438 376.535156 93.609375 369.328125 93.417969 C 364.457031 93.351562 359.683594 92.058594 355.445312 89.65625 C 351.082031 87.210938 347.480469 83.605469 345.035156 79.246094 C 342.28125 74.296875 340.882812 68.710938 340.984375 63.050781 C 340.902344 56.179688 342.597656 49.40625 345.902344 43.382812 C 349.015625 37.648438 353.609375 32.851562 359.207031 29.5 C 365.1875 26.140625 372.03125 24.632812 378.871094 25.160156 C 386.714844 24.460938 394.363281 27.851562 399.117188 34.128906 L 405.769531 1.15625 Z M 390.441406 69.699219 C 393.105469 65.699219 394.234375 60.875 393.621094 56.109375 C 393.726562 52.6875 392.480469 49.363281 390.152344 46.851562 C 387.699219 44.4375 384.335938 43.175781 380.898438 43.382812 C 376.445312 43.242188 372.175781 45.164062 369.328125 48.589844 C 366.28125 52.441406 364.738281 57.273438 364.988281 62.179688 C 364.773438 65.566406 365.917969 68.898438 368.171875 71.4375 C 370.644531 73.820312 373.996094 75.078125 377.425781 74.90625 C 382.371094 75.53125 387.289062 73.5625 390.441406 69.699219 Z M 390.441406 69.699219 "/>
<path style=" stroke:none;fill-rule:nonzero;fill:rgb(15.686275%,15.686275%,15.686275%);fill-opacity:1;" d="M 515.382812 1.15625 L 497.160156 92.550781 L 474.890625 92.550781 L 474.890625 85.898438 C 469.703125 90.898438 462.71875 93.609375 455.515625 93.417969 C 450.644531 93.351562 445.871094 92.058594 441.632812 89.65625 C 437.269531 87.210938 433.667969 83.605469 431.21875 79.246094 C 428.464844 74.296875 427.070312 68.710938 427.171875 63.050781 C 427.089844 56.179688 428.785156 49.40625 432.089844 43.382812 C 435.199219 37.648438 439.792969 32.851562 445.390625 29.5 C 451.375 26.140625 458.21875 24.632812 465.058594 25.160156 C 472.902344 24.460938 480.550781 27.851562 485.304688 34.128906 L 491.957031 1.15625 Z M 476.339844 69.699219 C 479.308594 65.820312 480.746094 60.980469 480.386719 56.109375 C 480.492188 52.6875 479.246094 49.363281 476.917969 46.851562 C 474.464844 44.4375 471.097656 43.175781 467.660156 43.382812 C 463.210938 43.242188 458.941406 45.164062 456.09375 48.589844 C 453.046875 52.441406 451.503906 57.273438 451.753906 62.179688 C 451.539062 65.566406 452.683594 68.898438 454.9375 71.4375 C 457.410156 73.820312 460.757812 75.078125 464.191406 74.90625 C 468.84375 75.230469 473.367188 73.292969 476.339844 69.699219 Z M 476.339844 69.699219 "/>
<path style=" stroke:none;fill-rule:nonzero;fill:rgb(15.686275%,15.686275%,15.686275%);fill-opacity:1;" d="M 530.710938 89.945312 C 525.726562 87.609375 521.511719 83.894531 518.5625 79.246094 C 515.605469 74.476562 514.097656 68.949219 514.226562 63.339844 C 513.960938 49.273438 521.695312 36.273438 534.179688 29.789062 C 540.71875 26.503906 547.980469 24.910156 555.292969 25.160156 C 561.667969 25.019531 567.992188 26.304688 573.804688 28.921875 C 578.789062 31.257812 583.003906 34.972656 585.949219 39.621094 C 588.652344 43.972656 590.148438 48.964844 590.289062 54.082031 C 590.484375 68.132812 582.773438 81.097656 570.332031 87.632812 C 563.820312 91.019531 556.558594 92.710938 549.21875 92.550781 C 542.933594 93.066406 536.609375 92.175781 530.710938 89.945312 Z M 561.945312 69.699219 C 565.332031 65.988281 567.191406 61.132812 567.152344 56.109375 C 567.257812 52.6875 566.011719 49.363281 563.679688 46.851562 C 561.226562 44.4375 557.863281 43.175781 554.425781 43.382812 C 549.972656 43.242188 545.707031 45.164062 542.859375 48.589844 C 539.808594 52.441406 538.269531 57.273438 538.519531 62.179688 C 538.382812 65.609375 539.632812 68.945312 541.988281 71.4375 C 544.464844 73.820312 547.8125 75.078125 551.246094 74.90625 C 555.394531 74.789062 559.292969 72.890625 561.945312 69.699219 Z M 561.945312 69.699219 "/>
<path style=" stroke:none;fill-rule:nonzero;fill:url(#linear3);" d="M 16.773438 41.648438 L 52.925781 41.648438 C 54.84375 41.648438 56.398438 43.199219 56.398438 45.117188 L 56.398438 45.40625 C 56.398438 47.324219 54.84375 48.878906 52.925781 48.878906 L 16.773438 48.878906 C 14.859375 48.878906 13.304688 47.324219 13.304688 45.40625 L 13.304688 45.117188 C 13.304688 43.199219 14.859375 41.648438 16.773438 41.648438 Z M 16.773438 41.648438 "/>
<path style=" stroke:none;fill-rule:nonzero;fill:url(#linear4);" d="M 24.871094 57.84375 L 61.023438 57.84375 C 62.941406 57.84375 64.496094 59.398438 64.496094 61.3125 L 64.496094 61.601562 C 64.496094 63.519531 62.941406 65.074219 61.023438 65.074219 L 24.871094 65.074219 C 22.957031 65.074219 21.402344 63.519531 21.402344 61.601562 L 21.402344 61.3125 C 21.402344 59.398438 22.957031 57.84375 24.871094 57.84375 Z M 24.871094 57.84375 "/>
<path style=" stroke:none;fill-rule:nonzero;fill:url(#linear5);" d="M 3.46875 73.460938 L 47.140625 73.460938 C 49.058594 73.460938 50.613281 75.015625 50.613281 76.929688 L 50.613281 77.21875 C 50.613281 79.136719 49.058594 80.691406 47.140625 80.691406 L 3.46875 80.691406 C 1.554688 80.691406 0 79.136719 0 77.21875 L 0 76.929688 C 0 75.015625 1.554688 73.460938 3.46875 73.460938 Z M 3.46875 73.460938 "/>
</g>
</svg>
